PathFileType	4	(X/Y/Z)	joints.trc
DataRate	CameraRate	NumFrames	NumMarkers	Units	OrigDataRate	OrigDataStartFrame	OrigNumFrames
30.0	30.0	14	24	m	30.0	1	120
Frame#	Time	pelvis			femur_r			tibia_r			talus_r			calcn_r			toes_r			femur_l			tibia_l			talus_l			calcn_l			toes_l			lumbar_body			thorax			head			scapula_r			humerus_r			ulna_r			radius_r			hand_r			scapula_l			humerus_l			ulna_l			radius_l			hand_l		
		X1	Y1	Z1	X2	Y2	Z2	X3	Y3	Z3	X4	Y4	Z4	X5	Y5	Z5	X6	Y6	Z6	X7	Y7	Z7	X8	Y8	Z8	X9	Y9	Z9	X10	Y10	Z10	X11	Y11	Z11	X12	Y12	Z12	X13	Y13	Z13	X14	Y14	Z14	X15	Y15	Z15	X16	Y16	Z16	X17	Y17	Z17	X18	Y18	Z18	X19	Y19	Z19	X20	Y20	Z20	X21	Y21	Z21	X22	Y22	Z22	X23	Y23	Z23	X24	Y24	Z24
1	0.000000	0.008923	0.948837	0.075640	-0.068493	0.883769	0.015607	-0.122986	0.477788	-0.022899	-0.175517	0.058899	-0.094588	-0.189724	0.018802	-0.146973	-0.199830	-0.003145	0.053515	0.079679	0.884290	0.011653	0.130418	0.472923	-0.026342	0.190169	0.058548	-0.077927	0.203318	0.016825	-0.133415	0.214045	-0.001713	0.062702	-0.001585	1.113060	-0.024507	-0.015753	1.413810	0.019852	-0.005993	1.567409	-0.003552	-0.155690	1.425699	-0.002119	-0.149474	1.384059	0.004148	-0.241366	1.111469	0.004012	-0.239440	1.112547	0.005765	-0.251208	0.872828	0.115383	0.155928	1.387504	0.016358	0.155845	1.354171	0.001477	0.229039	1.103415	-0.009596	0.234483	1.108989	-0.001223	0.240098	0.861073	0.099905
2	0.033333	0.008005	0.948990	0.075772	-0.069447	0.883856	0.015876	-0.123398	0.477715	-0.022638	-0.175120	0.058908	-0.094567	-0.189264	0.018805	-0.146987	-0.199245	-0.003134	0.053651	0.078794	0.884406	0.011763	0.129343	0.472801	-0.025939	0.188708	0.058549	-0.077535	0.201849	0.016857	-0.133039	0.212399	-0.001897	0.063164	-0.002748	1.113199	-0.024442	-0.016961	1.413745	0.020164	-0.007273	1.567278	-0.002988	-0.156591	1.425498	-0.001562	-0.150426	1.383848	0.004697	-0.242358	1.111298	0.005127	-0.240410	1.112407	0.006997	-0.251339	0.873298	0.118189	0.154676	1.387501	0.017002	0.154616	1.354185	0.002138	0.227937	1.103453	-0.007712	0.233302	1.109054	0.000718	0.237476	0.861630	0.103070
3	0.066667	0.006938	0.948982	0.075970	-0.070479	0.883845	0.015931	-0.123890	0.477510	-0.021979	-0.174983	0.058877	-0.093989	-0.189141	0.018729	-0.146419	-0.198671	-0.003037	0.054548	0.077812	0.884483	0.011851	0.128386	0.472441	-0.025360	0.187587	0.058436	-0.077267	0.200690	0.016786	-0.132807	0.211335	-0.002088	0.063557	-0.003931	1.113246	-0.024096	-0.018162	1.413644	0.020885	-0.008501	1.567243	-0.001750	-0.157798	1.425586	-0.000642	-0.151671	1.383940	0.005540	-0.244009	1.111512	0.005682	-0.242082	1.112616	0.007583	-0.253227	0.873241	0.118986	0.153563	1.387732	0.018367	0.153546	1.354437	0.003417	0.227245	1.103764	-0.005672	0.232567	1.109352	0.002815	0.235833	0.861710	0.105973
4	0.100000	0.005623	0.948835	0.076226	-0.071677	0.883754	0.015864	-0.124404	0.477283	-0.021340	-0.174604	0.058764	-0.093404	-0.188718	0.018564	-0.145851	-0.197977	-0.003019	0.055369	0.076666	0.884469	0.011980	0.127223	0.472040	-0.024540	0.186630	0.058205	-0.076890	0.199784	0.016571	-0.132483	0.210250	-0.002273	0.064159	-0.005242	1.113222	-0.023537	-0.019806	1.413499	0.021998	-0.010200	1.567185	-0.000042	-0.159436	1.425576	0.000386	-0.153347	1.383927	0.006449	-0.246234	1.111458	0.005616	-0.244357	1.112544	0.007515	-0.256344	0.872695	0.118549	0.152085	1.387934	0.020144	0.152149	1.354675	0.005081	0.226487	1.104073	-0.003806	0.231803	1.109636	0.004726	0.234836	0.861548	0.108194
5	0.133333	0.004062	0.948589	0.076517	-0.073085	0.883646	0.015671	-0.125182	0.477092	-0.020730	-0.174517	0.058667	-0.093040	-0.188534	0.018450	-0.145509	-0.197861	-0.003054	0.055786	0.075291	0.884408	0.012097	0.125960	0.471729	-0.023489	0.186039	0.058087	-0.076696	0.199313	0.016510	-0.132351	0.209511	-0.002388	0.064531	-0.006732	1.113173	-0.022780	-0.021859	1.413343	0.023646	-0.012269	1.567165	0.002220	-0.161403	1.425429	0.001766	-0.155352	1.383768	0.007649	-0.248776	1.111205	0.005159	-0.246967	1.112259	0.007002	-0.260294	0.871692	0.116954	0.150301	1.387994	0.022321	0.150466	1.354786	0.007104	0.225566	1.104160	-0.002304	0.230917	1.109693	0.006247	0.234308	0.860981	0.109135
6	0.166667	0.002274	0.948300	0.076820	-0.074714	0.883580	0.015351	-0.126040	0.476951	-0.019643	-0.174353	0.058640	-0.092616	-0.188245	0.018427	-0.145126	-0.197725	-0.003010	0.056255	0.073676	0.884380	0.012084	0.124526	0.471482	-0.022087	0.185572	0.058149	-0.076781	0.199002	0.016693	-0.132523	0.208914	-0.002411	0.064597	-0.008499	1.113185	-0.021698	-0.024283	1.413201	0.026402	-0.014659	1.567265	0.005850	-0.163711	1.425252	0.004110	-0.157712	1.383570	0.009689	-0.251732	1.110974	0.004299	-0.250014	1.111977	0.005996	-0.265190	0.870302	0.113697	0.148210	1.388064	0.025400	0.148523	1.354934	0.009933	0.224749	1.104296	-0.001012	0.230197	1.109785	0.007536	0.234914	0.860190	0.108803
7	0.200000	0.000259	0.947994	0.077058	-0.076604	0.883606	0.014820	-0.127062	0.476880	-0.017648	-0.174168	0.058728	-0.092193	-0.187919	0.018563	-0.144779	-0.197542	-0.002825	0.056762	0.071775	0.884426	0.011781	0.122822	0.471248	-0.019927	0.185155	0.058380	-0.077138	0.198758	0.017122	-0.133003	0.208476	-0.002290	0.064353	-0.010572	1.113299	-0.020230	-0.026956	1.413050	0.030576	-0.017283	1.567523	0.011300	-0.166351	1.425152	0.007831	-0.160436	1.383448	0.012939	-0.255220	1.111046	0.003103	-0.253610	1.111987	0.004568	-0.270923	0.868878	0.108994	0.145823	1.388223	0.029626	0.146343	1.355214	0.013788	0.224198	1.104777	0.000034	0.229808	1.110216	0.008568	0.236879	0.859565	0.107293
8	0.233333	-0.002061	0.947743	0.077020	-0.078831	0.883819	0.013790	-0.128168	0.476926	-0.014298	-0.173682	0.059042	-0.092120	-0.187281	0.019028	-0.144862	-0.196892	-0.002479	0.057048	0.069501	0.884654	0.010896	0.120669	0.471114	-0.015964	0.184668	0.058866	-0.077812	0.198477	0.017952	-0.133880	0.208052	-0.002015	0.063738	-0.013018	1.113613	-0.018411	-0.029890	1.412852	0.036550	-0.020179	1.567936	0.019313	-0.169412	1.425251	0.013598	-0.163598	1.383529	0.017997	-0.259265	1.111630	0.001900	-0.257765	1.112498	0.003041	-0.277184	0.867565	0.103157	0.143105	1.388559	0.035535	0.143867	1.355734	0.019136	0.223704	1.105926	0.001140	0.229523	1.111307	0.009671	0.239637	0.859434	0.105022
9	0.266667	-0.004720	0.947398	0.076154	-0.081460	0.884064	0.011662	-0.129023	0.476981	-0.008126	-0.172373	0.059668	-0.092478	-0.185813	0.020007	-0.145516	-0.195179	-0.001966	0.057140	0.066763	0.884921	0.008829	0.117842	0.471245	-0.007303	0.183882	0.060156	-0.078670	0.197982	0.019966	-0.135138	0.207213	-0.001413	0.062862	-0.015750	1.113929	-0.016553	-0.032988	1.412158	0.044791	-0.023366	1.568087	0.031225	-0.172930	1.425224	0.022416	-0.167212	1.383496	0.025733	-0.263772	1.112513	0.001094	-0.262360	1.113303	0.001824	-0.283398	0.866203	0.096709	0.140076	1.388826	0.044029	0.141101	1.356289	0.026704	0.223148	1.107810	0.002502	0.229215	1.113125	0.011060	0.242850	0.859788	0.102034
10	0.300000	-0.007608	0.945663	0.073495	-0.084455	0.883057	0.007437	-0.129165	0.476049	0.004693	-0.170171	0.060848	-0.093080	-0.183470	0.022055	-0.146613	-0.192557	-0.001176	0.057387	0.063648	0.883954	0.004566	0.114651	0.471457	0.011661	0.182928	0.063810	-0.078476	0.197372	0.025206	-0.135619	0.206145	0.000557	0.062783	-0.018502	1.112742	-0.015305	-0.035801	1.409072	0.055762	-0.026349	1.566098	0.048484	-0.176376	1.423029	0.035466	-0.170776	1.381315	0.037151	-0.268245	1.111839	0.001070	-0.266885	1.112538	0.001275	-0.288814	0.862815	0.089487	0.137245	1.387063	0.056068	0.138513	1.354987	0.037222	0.222675	1.108682	0.004150	0.229038	1.113928	0.012805	0.246657	0.858955	0.098318
11	0.333333	-0.010401	0.939248	0.068492	-0.087433	0.877598	0.000640	-0.129325	0.472404	0.027655	-0.168770	0.064116	-0.094927	-0.181929	0.027365	-0.149139	-0.191261	0.000972	0.056548	0.060700	0.878399	-0.002245	0.112026	0.469987	0.041067	0.183723	0.069729	-0.077344	0.198687	0.033725	-0.135310	0.206839	0.004032	0.063105	-0.021042	1.106652	-0.015878	-0.037954	1.400186	0.067250	-0.028599	1.558224	0.068201	-0.179162	1.414999	0.050905	-0.173707	1.373339	0.050558	-0.272148	1.105783	0.001575	-0.270815	1.106381	0.001138	-0.293186	0.853911	0.081647	0.135064	1.379065	0.069470	0.136472	1.347576	0.048619	0.221904	1.103517	0.005266	0.228565	1.108691	0.014061	0.249453	0.851978	0.093236
12	0.366667	-0.012597	0.921418	0.062374	-0.089649	0.861091	-0.007734	-0.131175	0.462842	0.062867	-0.170723	0.069517	-0.098285	-0.183890	0.036730	-0.153259	-0.193272	0.003524	0.052920	0.058751	0.861558	-0.009907	0.111196	0.463096	0.082336	0.188313	0.076026	-0.075342	0.204281	0.043980	-0.134157	0.210467	0.006956	0.062880	-0.022670	1.089051	-0.017363	-0.038776	1.378627	0.080165	-0.029561	1.537245	0.090676	-0.180471	1.394060	0.069267	-0.175234	1.352507	0.066548	-0.274920	1.087270	0.003868	-0.273631	1.087772	0.002717	-0.296726	0.832988	0.074731	0.133891	1.357327	0.085649	0.135376	1.326584	0.062372	0.221390	1.084310	0.008713	0.228338	1.089454	0.017636	0.251147	0.830941	0.088222
13	0.400000	-0.013800	0.889875	0.056498	-0.090691	0.831098	-0.016188	-0.133496	0.445769	0.104828	-0.176030	0.072969	-0.096645	-0.189457	0.044898	-0.151939	-0.199115	0.003913	0.052514	0.058099	0.830977	-0.016590	0.110732	0.449201	0.126401	0.194635	0.080111	-0.074256	0.211706	0.052671	-0.133830	0.216292	0.007855	0.060910	-0.022616	1.057537	-0.018695	-0.038277	1.342043	0.093894	-0.030127	1.500215	0.113621	-0.180227	1.356869	0.088248	-0.175210	1.315471	0.083192	-0.275572	1.052630	0.008231	-0.274366	1.053044	0.006483	-0.298920	0.796926	0.070089	0.133699	1.319384	0.103326	0.135225	1.289536	0.077652	0.221303	1.048684	0.014717	0.228501	1.053877	0.023774	0.252627	0.794038	0.085351
14	0.433333	-0.013596	0.848877	0.052810	-0.090325	0.791378	-0.021818	-0.131749	0.422756	0.147780	-0.181408	0.072366	-0.088158	-0.195658	0.048497	-0.143203	-0.205711	0.001533	0.058966	0.058867	0.790571	-0.020439	0.107872	0.429250	0.165399	0.200085	0.080547	-0.073077	0.218349	0.057327	-0.133240	0.221846	0.006496	0.059674	-0.021388	1.015940	-0.018814	-0.037622	1.294928	0.106664	-0.030447	1.451705	0.134409	-0.179458	1.307927	0.104819	-0.174394	1.266712	0.097898	-0.273418	1.005452	0.013696	-0.272328	1.005771	0.011602	-0.299912	0.749054	0.068622	0.133937	1.269675	0.119066	0.135400	1.240731	0.091466	0.220258	1.000141	0.021370	0.227664	1.005471	0.030589	0.253539	0.744746	0.086113
